Coordinates
version=1
nRows=11
nColumns=42
inDegrees=yes

Units are S.I. units (second, meters, Newtons, ...)
If the header above contains a line with 'inDegrees', this indicates whether rotational values are in degrees (yes) or radians (no).

endheader
time	pelvis_tilt	pelvis_list	pelvis_rotation	pelvis_tx	pelvis_ty	pelvis_tz	hip_flexion_r	hip_adduction_r	hip_rotation_r	knee_angle_r	knee_adduction_r	knee_angle_r_beta	ankle_angle_r	subtalar_angle_r	mtp_angle_r	hip_flexion_l	hip_adduction_l	hip_rotation_l	knee_angle_l	knee_adduction_l	knee_angle_l_beta	ankle_angle_l	subtalar_angle_l	mtp_angle_l	lumbar_extension	lumbar_bending	lumbar_rotation	arm_flex_r	arm_add_r	arm_rot_r	elbow_flex_r	pro_sup_r	wrist_flex_r	wrist_dev_r	arm_flex_l	arm_add_l	arm_rot_l	elbow_flex_l	pro_sup_l	wrist_flex_l	wrist_dev_l
      2.74000000	     15.27930957	     -3.24947478	      0.83552183	      2.03284286	      0.88672077	     -0.13184765	    -10.09796597	      7.52052365	     -6.50638609	     16.43117691	     -5.63114594	      0.28677814	     15.14620175	     12.90975286	     -7.50000460	     -1.58772317	     -6.39365271	    -13.58533815	     66.96663324	     -8.69669356	      1.16878824	      7.44022869	    -14.65012485	     -7.50000460	    -28.74321549	      0.26895687	     -1.20335791	     -1.74009906	     -2.24710741	    -18.36456655	     45.27873034	     90.00000001	      0.00000000	      0.00000000	      0.28886899	     -4.76890973	    -12.40632424	     42.29566255	     90.00000001	      0.00000000	      0.00000000
      2.75000000	     15.25737463	     -3.01368151	      0.76172248	      2.04344532	      0.88734926	     -0.13133142	    -11.33206876	      7.25647839	     -6.75522267	     15.39810275	     -5.55488104	      0.26874759	     15.31710800	     13.95009036	     -7.50000443	     -0.01370723	     -6.18611678	    -13.18150847	     66.46166796	     -8.05858205	      1.15997493	      8.72551402	    -14.60959922	     -7.50000443	    -28.74110026	     -0.04359820	     -0.66286191	     -1.85640280	     -2.39822189	    -18.01971434	     46.44096037	     90.00000001	      0.00000000	      0.00000000	      0.11937514	     -4.70392746	    -12.50855122	     42.40090599	     90.00000001	      0.00000000	      0.00000000
      2.76000000	     15.03924983	     -2.88535304	      0.62669878	      2.05383163	      0.88758083	     -0.13083818	    -12.11602485	      7.02188625	     -7.33085772	     14.85835030	     -5.44333203	      0.25932713	     15.44345365	     13.95147931	     -7.50000438	      1.77187638	     -6.14354632	    -13.22686685	     65.68178855	     -7.67734725	      1.14636347	      9.11313002	    -14.25462901	     -7.50000438	    -28.53372765	     -0.25875924	     -0.10273230	     -1.53792953	     -2.53857125	    -17.92163146	     46.81410171	     90.00000001	      0.00000000	      0.00000000	     -0.08931443	     -4.66082336	    -12.51463828	     42.46505128	     90.00000001	      0.00000000	      0.00000000
      2.77000000	     15.16931542	     -2.63011494	      0.64250781	      2.06469954	      0.88790930	     -0.13060091	    -13.76766078	      6.74207149	     -7.41177249	     13.30753395	     -5.25559978	      0.23226028	     15.58069371	     15.88927630	     -7.50000424	      2.97142427	     -5.83550203	    -12.68891944	     64.53896823	     -6.95927470	      1.12641749	     10.65806886	    -14.92377713	     -7.50000424	    -28.64267926	     -0.51698332	      0.32982375	     -1.91111981	     -2.71906559	    -17.48942682	     48.40227832	     90.00000001	      0.00000000	      0.00000000	     -0.32836687	     -4.58402803	    -12.70182040	     42.55362798	     90.00000001	      0.00000000	      0.00000000
      2.78000000	     15.06430349	     -2.39119978	      0.67729024	      2.07530285	      0.88764537	     -0.13051823	    -14.51124122	      6.23811883	     -9.95979290	     12.86352076	     -5.13433502	      0.22451079	     16.26883325	     20.20485707	     -7.50000374	      4.46552012	     -5.57505788	    -12.38580090	     63.22396583	     -6.37352073	      1.10346637	     11.06278451	    -15.39555751	     -7.50000374	    -28.52936781	     -0.72984040	      0.73778419	     -2.54817990	     -3.30083919	    -15.81190955	     50.38999528	     90.00000001	      0.00000000	      0.00000000	     -0.47539628	     -4.41397389	    -13.13967420	     42.65368155	     90.00000001	      0.00000000	      0.00000000
      2.79000000	     15.02052136	     -2.26311359	      0.69693288	      2.08597418	      0.88740381	     -0.13041099	    -15.75819616	      6.02996742	    -10.35353441	     11.77789151	     -4.86170777	      0.20556299	     16.24260754	     21.20315403	     -7.50000362	      5.75179064	     -5.43614167	    -12.27802367	     61.52590884	     -5.89608205	      1.07382968	     11.55048871	    -15.55358630	     -7.50000362	    -28.45039401	     -0.82854452	      1.13590805	     -2.44426529	     -3.44739664	    -15.77934512	     50.98559732	     90.00000001	      0.00000000	      0.00000000	     -0.71897426	     -4.36393585	    -13.19660411	     42.71056018	     90.00000001	      0.00000000	      0.00000000
      2.80000000	     15.01278315	     -2.11647253	      0.78426853	      2.09659749	      0.88698704	     -0.13044084	    -16.99715806	      5.78136089	    -10.98802208	     10.78917259	     -4.54095242	      0.18830659	     16.27359018	     22.01855338	     -7.50000353	      6.93315851	     -5.24178658	    -12.21347126	     59.57309351	     -5.49823574	      1.03974663	     11.91853946	    -15.68676280	     -7.50000353	    -28.43828592	     -0.92022899	      1.42429712	     -2.35012453	     -3.58158524	    -15.68659509	     51.67872106	     90.00000001	      0.00000000	      0.00000000	     -0.94781462	     -4.33983876	    -13.25954608	     42.73221265	     90.00000001	      0.00000000	      0.00000000
      2.81000000	     15.00921772	     -1.97560224	      0.85649645	      2.10728962	      0.88632378	     -0.13056328	    -17.84644934	      5.33043335	    -13.44258340	     10.48031778	     -4.17637314	      0.18291605	     16.59188520	     26.48039677	     -7.50000306	      7.97568656	     -5.04215798	    -12.07291937	     57.32162327	     -4.94816906	      1.00045106	     11.82380738	    -16.10894681	     -7.50000306	    -28.42220409	     -0.99324873	      1.70435668	     -2.59466312	     -3.94036690	    -14.98072565	     53.05955905	     90.00000001	      0.00000000	      0.00000000	     -1.22008245	     -4.22141825	    -13.61148530	     42.73252764	     90.00000001	      0.00000000	      0.00000000
      2.82000000	     15.06555085	     -1.85810786	      0.98945364	      2.11794713	      0.88567403	     -0.13079689	    -19.14007035	      5.11438528	    -13.94483059	      9.58003897	     -3.77113507	      0.16720322	     16.55589114	     26.94966400	     -7.50000299	      8.84121993	     -4.83562303	    -12.06859280	     54.75607050	     -4.53130995	      0.95567372	     11.91414017	    -15.98971332	     -7.50000299	    -28.47165533	     -1.01480079	      1.93587369	     -2.42974137	     -4.07304578	    -14.95732663	     53.52696996	     90.00000001	      0.00000000	      0.00000000	     -1.42062506	     -4.16687685	    -13.64164622	     42.74157875	     90.00000001	      0.00000000	      0.00000000
      2.83000000	     15.15036828	     -1.77877825	      1.11967620	      2.12857501	      0.88493821	     -0.13106358	    -20.40744461	      4.93611943	    -14.48191860	      8.78448360	     -3.37104513	      0.15331816	     16.43694120	     27.69793318	     -7.50000292	      9.54579893	     -4.66431921	    -12.06726077	     51.91933855	     -4.04503709	      0.90616340	     11.76707663	    -15.81556728	     -7.50000292	    -28.57628672	     -1.00069347	      2.11510062	     -2.29376969	     -4.21514488	    -14.88244946	     54.13475637	     90.00000001	      0.00000000	      0.00000000	     -1.66273292	     -4.12559234	    -13.72146261	     42.71690569	     90.00000001	      0.00000000	      0.00000000
      2.84000000	     15.23609632	     -1.74044502	      1.25075272	      2.13924334	      0.88403936	     -0.13136255	    -21.61256450	      4.78227510	    -15.13403701	      8.12114553	     -2.97020686	      0.14174073	     16.29443855	     28.70076718	     -7.50000284	     10.12323857	     -4.51476343	    -12.09514146	     48.84845271	     -3.55718317	      0.85256633	     11.46044785	    -15.55595363	     -7.50000284	    -28.67927919	     -0.93750998	      2.28564272	     -2.15114207	     -4.36523911	    -14.74913596	     54.77739875	     90.00000001	      0.00000000	      0.00000000	     -1.91157947	     -4.08000398	    -13.85935253	     42.65623664	     90.00000001	      0.00000000	      0.00000000
